<svg width="121" height="120" viewBox="0 0 121 120" fill="none" xmlns="http://www.w3.org/2000/svg">
<g clip-path="url(#clip0)">
<path d="M0.097168 25.253C0.097168 11.3062 11.4033 0 25.3502 0H94.8441C108.791 0 120.097 11.3062 120.097 25.253V94.747C120.097 108.694 108.791 120 94.8441 120H25.3502C11.4033 120 0.097168 108.694 0.097168 94.747V25.253Z" fill="#21FA90"/>
<path fill-rule="evenodd" clip-rule="evenodd" d="M120.097 59.8584V119.86C116.59 119.86 54.2786 120.434 50.9154 119.86L25.7465 95.0299L30.5046 87.6225L22.1685 68.9816L22.4904 45.1889L30.0754 52.9164L33.2607 30.6267L36.6951 34.0977L41.0956 25.1161L47.2135 31.2339L49.2179 30.0545L64.2458 45.1889L67.788 38.6411L72.296 43.1501L75.6589 29.9466L80.0243 34.4915L83.6383 25.0452L90.6502 32.2L91.6534 30.8063L120.097 59.8584Z" fill="#1ABF6E"/>
<path fill-rule="evenodd" clip-rule="evenodd" d="M57.9472 62.0056L25.5322 94.4564C25.5322 94.9222 25.8889 95.2805 26.3551 95.3157C30.5765 95.53 47.8224 95.5664 51.6155 95.4591C52.0797 95.4238 52.4381 95.102 52.4735 94.6714C52.903 91.5952 51.9365 83.5088 54.0837 80.0022C55.5511 77.6404 56.5169 76.4591 57.1247 75.2071C58.235 72.811 57.9472 68.4093 57.9472 65.7273V62.0056ZM90.0777 29.9111L86.0349 33.9533V54.669C86.0349 56.9607 84.6036 56.8532 84.6036 54.4912V35.3845L78.2351 41.7536V54.669C78.2351 57.4252 76.5537 56.5671 76.5537 54.669V43.4359L70.1853 49.8031V57.4611C70.1853 60.5028 68.6456 60.0734 68.6456 57.4611V51.3428L62.2416 57.748V65.7273C62.2416 68.4093 61.9553 72.811 63.0997 75.2071C63.7088 76.4591 64.6746 77.6404 66.1063 80.0022C68.252 83.5088 67.3229 91.5952 67.7164 94.6714C67.7878 95.102 68.1455 95.4238 68.5748 95.4591C72.3679 95.5664 89.6489 95.53 93.8354 95.3157C94.3366 95.2805 94.7292 94.8869 94.6938 94.3853C94.4428 90.0205 92.7262 83.4018 94.8367 80.1102C98.9154 72.9183 103.174 67.7662 103.174 59.2142C103.174 55.315 103.174 51.4149 103.174 47.5145C103.174 43.2913 96.8052 43.2913 96.8052 47.5145C96.8052 51.2709 96.59 56.6378 93.9429 59.8937C92.7616 61.3256 92.4755 61.147 92.4034 59.643C92.1528 50.7705 92.4034 41.8615 92.4034 32.9518C92.4034 31.2339 91.3303 30.1972 90.0777 29.9111Z" fill="#1D191E"/>
<path fill-rule="evenodd" clip-rule="evenodd" d="M86.0349 33.9533L90.0776 29.9111C88.2535 29.4452 86.0349 30.4467 86.0349 32.9518V33.9533ZM78.2351 41.7536L84.6035 35.3845V27.4063C84.6035 23.1846 78.2351 23.1846 78.2351 27.4063V41.7536ZM70.1852 49.8031L76.5537 43.3991V32.2366C76.5537 28.0137 70.1852 28.0137 70.1852 32.2366V49.8031ZM62.2415 57.7113L68.6455 51.3428V40.8953C68.6455 36.6724 62.2415 36.6724 62.2415 40.8953V57.7113ZM25.5322 94.4564L57.9472 62.0056V40.8953C57.9472 36.6724 51.5794 36.6724 51.5794 40.8953C51.5794 46.4045 51.5794 51.9507 51.5794 57.4611C51.5794 60.0734 50.0399 60.5028 50.0399 57.4611C50.0399 49.0527 50.0399 40.6448 50.0399 32.2366C50.0399 28.0137 43.636 28.0137 43.636 32.2366C43.636 39.7142 43.636 47.192 43.636 54.669C43.636 56.5671 41.9904 57.4252 41.9904 54.669C41.9904 45.5828 41.9904 36.4938 41.9904 27.4063C41.9904 23.1846 35.6216 23.1846 35.6216 27.4063C35.6216 36.4229 35.6216 45.4755 35.6216 54.4912C35.6216 56.8532 34.1909 56.9607 34.1909 54.669C34.1909 47.4426 34.1909 40.2157 34.1909 32.9518C34.1909 28.7301 27.7854 28.7301 27.7854 32.9518C27.7854 41.8615 28.0715 50.7705 27.7854 59.643C27.75 61.147 27.4638 61.3256 26.2826 59.8937C23.636 56.6378 23.4206 51.2709 23.4206 47.5145C23.4206 43.2913 17.0161 43.2913 17.0161 47.5145C17.0161 51.4149 17.0161 55.315 17.0161 59.2142C17.0161 67.7662 21.3098 72.9183 25.389 80.1102C27.4995 83.4018 25.7463 90.0205 25.5322 94.3853C25.4954 94.3853 25.4954 94.4223 25.5322 94.4564Z" fill="#342E37"/>
</g>
<defs>
<clipPath id="clip0">
<path d="M0.097168 25.253C0.097168 11.3062 11.4033 0 25.3502 0H94.8441C108.791 0 120.097 11.3062 120.097 25.253V94.747C120.097 108.694 108.791 120 94.8441 120H25.3502C11.4033 120 0.097168 108.694 0.097168 94.747V25.253Z" fill="white"/>
</clipPath>
</defs>
</svg>
